<?xml version="1.0" encoding="utf-8"?>
<!-- Generator: Adobe Illustrator 14.0.0, SVG Export Plug-In . SVG Version: 6.00 Build 43363)  -->
<!DOCTYPE svg PUBLIC "-//W3C//DTD SVG 1.1//EN" "http://www.w3.org/Graphics/SVG/1.1/DTD/svg11.dtd">
<svg version="1.1" id="Layer_3" xmlns="http://www.w3.org/2000/svg" xmlns:xlink="http://www.w3.org/1999/xlink" x="0px" y="0px"
	 width="20px" height="20px" viewBox="0 0 20 20" enable-background="new 0 0 20 20" xml:space="preserve">
<g>
	<path fill="#FFFFFF" d="M5.714,2.829L8.585,5.7L10,7.114L11.414,5.7l2.87-2.871l2.887,2.886L14.3,8.586L12.886,10l1.414,1.414
		l2.871,2.872l-2.887,2.886l-2.87-2.871L10,12.887l-1.414,1.414l-2.871,2.871l-2.886-2.886L5.7,11.415L7.115,10L5.7,8.586
		L2.829,5.715L5.714,2.829 M5.714,0L0,5.715L4.286,10L0,14.286L5.714,20L10,15.715L14.284,20L20,14.286L15.714,10l4.285-4.285
		L14.284,0L10,4.286L5.714,0L5.714,0z"/>
</g>
</svg>
