<?xml version="1.0" encoding="utf-8"?>
<!-- Generator: Adobe Illustrator 14.0.0, SVG Export Plug-In . SVG Version: 6.00 Build 43363)  -->
<!DOCTYPE svg PUBLIC "-//W3C//DTD SVG 1.1//EN" "http://www.w3.org/Graphics/SVG/1.1/DTD/svg11.dtd">
<svg version="1.1" id="Layer_1" xmlns="http://www.w3.org/2000/svg" xmlns:xlink="http://www.w3.org/1999/xlink" x="0px" y="0px"
	 width="80px" height="80px" viewBox="0 0 80 80" enable-background="new 0 0 80 80" xml:space="preserve">
<g>
	<path fill="#FFFFFF" d="M75.538,40c0,19.851-16.149,36-36,36c-19.85,0-36-16.149-36-36c0-19.851,16.148-36,36-36
		C59.389,4,75.538,20.149,75.538,40 M79.538,40c0-22.091-17.909-40-40-40s-40,17.909-40,40c0,22.091,17.908,40,40,40
		S79.538,62.091,79.538,40L79.538,40z"/>
</g>
<polyline fill="none" stroke="#FFFFFF" stroke-width="4" points="51.538,35 39.538,46.999 27.538,35 "/>
</svg>
