<?xml version="1.0" encoding="utf-8"?>
<!-- Generator: Adobe Illustrator 17.1.0, SVG Export Plug-In . SVG Version: 6.00 Build 0)  -->
<!DOCTYPE svg PUBLIC "-//W3C//DTD SVG 1.0//EN" "http://www.w3.org/TR/2001/REC-SVG-20010904/DTD/svg10.dtd">
<svg version="1.0" id="Layer_1" xmlns="http://www.w3.org/2000/svg" xmlns:xlink="http://www.w3.org/1999/xlink" x="0px" y="0px"
	 viewBox="0 0 595.3 841.9" enable-background="new 0 0 595.3 841.9" xml:space="preserve">
<path fill="#FFFFFF" d="M6.9,424.8v25.9c0,2.1-1,3.1-3.1,3.1H3c-2,0-3-1-3-3.1v-59.3c0-2.1,1.7-3.8,3.8-3.8h36.9c2,0,3.1,1,3.1,2.8
	v0.6c0,2-1.1,2.8-3.1,2.8H6.9v24.9"/>
<path fill="#FFFFFF" d="M90,449.6v-59.3c0-2.1,1-3.1,3-3.1h0.8c2,0,3.1,1,3.1,3.1v56.8h31.8c2,0,3.1,1,3.1,3v0.6c0,1.8-1.1,3-3.1,3
	h-35C91.7,453.6,90,451.9,90,449.6z"/>
<path fill="#FFFFFF" d="M176.1,427.5v-37.2c0-2,1-3.1,3-3.1h0.8c2,0,3.1,1.1,3.1,3.1V427c0,14.2,6.4,21.5,18.8,21.5
	c12.7,0,18.8-7.1,18.8-21.7v-36.5c0-2.1,0.8-3.1,2.8-3.1h1.3c2,0,2.7,1,2.7,3.1v36.9c0,17.8-9.2,27.5-25.9,27.5
	C185.1,454.7,176.1,445.2,176.1,427.5z"/>
<path fill="#FFFFFF" d="M276.8,427.5v-37.2c0-2,1-3.1,3-3.1h0.8c2,0,3.1,1.1,3.1,3.1V427c0,14.2,6.4,21.5,18.8,21.5
	c12.7,0,18.8-7.1,18.8-21.7v-36.5c0-2.1,0.8-3.1,2.8-3.1h1.3c2,0,2.7,1,2.7,3.1v36.9c0,17.8-9.2,27.5-25.9,27.5
	C285.9,454.7,276.8,445.2,276.8,427.5z"/>
<path fill="#FFFFFF" d="M377.6,427.5v-37.2c0-2,1-3.1,3-3.1h0.8c2,0,3.1,1.1,3.1,3.1V427c0,14.2,6.4,21.5,18.8,21.5
	c12.7,0,18.8-7.1,18.8-21.7v-36.5c0-2.1,0.8-3.1,2.8-3.1h1.3c2,0,2.7,1,2.7,3.1v36.9c0,17.8-9.2,27.5-25.9,27.5
	C386.7,454.7,377.6,445.2,377.6,427.5z"/>
<path fill="#FFFFFF" d="M480.5,450.7v-60.4c0-2,1-3.1,3-3.1h0.8c2,0,3.1,1.1,3.1,3.1v60.4c0,2.1-1,3.1-3.1,3.1h-0.8
	C481.5,454,480.5,452.9,480.5,450.7z"/>
<path fill="#FFFFFF" d="M559.2,387.6h-15.6c-2.1,0-3.8,1.7-3.8,3.8v2h6.9v0.3h12.6c18.1,0,28.9,10,28.9,26.9c0,17-10.5,26.7-29,26.7
	h-12.5v-0.6h-6.9v2.7c0,2.1,1.7,3.8,3.8,3.8h15.1c22.9,0,36.7-12.3,36.7-33.1C595.3,399.8,582,387.6,559.2,387.6z"/>
</svg>
